<?xml version="1.0" encoding="iso-8859-1"?>
<!DOCTYPE svg PUBLIC "-//W3C//DTD SVG 1.0//EN" "http://www.w3.org/TR/2001/REC-SVG-20010904/DTD/svg10.dtd">
<svg width="1465" height="790" xmlns="http://www.w3.org/2000/svg" xmlns:xlink="http://www.w3.org/1999/xlink">
<g style="stroke:black;fill:lightgreen" transform="translate(30,30)">
<line x1="675" y1="271" x2="599" y2="454" style="stroke:blue; stroke-width:1"/>
<line x1="675" y1="271" x2="669" y2="277" style="stroke:blue; stroke-width:1"/>
<line x1="675" y1="271" x2="675" y2="24" style="stroke:blue; stroke-width:1"/>
<line x1="599" y1="454" x2="599" y2="454" style="stroke:blue; stroke-width:1"/>
<line x1="599" y1="454" x2="266" y2="121" style="stroke:blue; stroke-width:1"/>
<line x1="599" y1="454" x2="607" y2="454" style="stroke:blue; stroke-width:1"/>
<line x1="599" y1="454" x2="635" y2="540" style="stroke:blue; stroke-width:1"/>
<line x1="635" y1="540" x2="619" y2="580" style="stroke:blue; stroke-width:1"/>
<line x1="619" y1="580" x2="607" y2="591" style="stroke:blue; stroke-width:1"/>
<line x1="619" y1="580" x2="619" y2="736" style="stroke:blue; stroke-width:1"/>
<line x1="635" y1="540" x2="827" y2="620" style="stroke:blue; stroke-width:1"/>
<line x1="827" y1="620" x2="822" y2="614" style="stroke:blue; stroke-width:1"/>
<line x1="827" y1="620" x2="1047" y2="620" style="stroke:blue; stroke-width:1"/>
<text x="669" y="278" font-weight = "10" font-family="verdana" fill="black" font-size="18">B3</text>
<text x="669" y="23" font-weight = "10" font-family="verdana" fill="black" font-size="18">B4</text>
<text x="254" y="122" font-weight = "10" font-family="verdana" fill="black" font-size="18">B1</text>
<text x="593" y="461" font-weight = "10" font-family="verdana" fill="black" font-size="18">M4</text>
<text x="595" y="604" font-weight = "10" font-family="verdana" fill="black" font-size="18">B2</text>
<text x="613" y="751" font-weight = "10" font-family="verdana" fill="black" font-size="18">M1</text>
<text x="821" y="627" font-weight = "10" font-family="verdana" fill="black" font-size="18">M2</text>
<text x="1049" y="627" font-weight = "10" font-family="verdana" fill="black" font-size="18">M3</text>
</g></svg>